#tb 0: 1/25
0,          0,          0,        1,   196608, 0x8e4171e2
0,          1,          1,        1,   196608, 0xf3d371e2
0,          2,          2,        1,   196608, 0xb9cb71e2
